<?xml version="1.0" encoding="UTF-8"?>
<svg id="Layer_1" data-name="Layer 1" xmlns="http://www.w3.org/2000/svg" viewBox="0 0 132.96 130.95">
  <path d="M128.56,60.62c-.21,.08-2.17,.3-2.54,1.18-.44,1.04,.09,2.96,.88,3.99,2.86,3.72,4.38,7.8,4.19,12.48-.07,1.86-.78,2.97-2.82,1.65-.55-.36-1.08-.82-1.69-1-2.47-.74-3.93,.53-3.49,3.1,.28,1.62,1.08,3.16,1.26,4.79,.31,2.86-.78,3.59-3.48,2.45-7.19-3.04-14.35-6.15-21.54-9.18-4.42-1.86-8.84-3.78-13.36-5.38-2.42-.85-3.12-2.22-2.61-4.51,.22-.97,.49-1.93,.72-2.9,2.62-11.16-6.46-21.26-17.85-19.82-1.13,.14-2.22,.61-3.31,.98-3.65,1.25-4.62,.78-6.11-2.72-4.02-9.47-8.08-18.93-12.15-28.38-1.05-2.44-2.22-4.83-3.37-7.23-.84-1.76-.41-3.2,.96-4.48,1.97-1.83,3.21-1.34,4.03,1.28,.4,1.26,1.39,2.34,2.11,3.5,1.15-.8,2.53-1.39,3.41-2.42,2.84-3.36,6.08-6.13,10.27-7.61,2.74-.97,3.77-.09,3.02,2.71-.37,1.4-.9,2.79,.64,3.42,1.04,.42,2.55,.31,3.62-.13,1.67-.68,3.04-2.09,4.71-2.75,2.13-.84,4.4-1.57,6.66-1.74,4.54-.35,4.63-.08,3.11,4.16-.94,2.63,.39,4.12,3.31,3.61,2.29-.4,4.53-1.1,6.83-1.34,1.79-.18,3.68-.05,5.45,.29,3.86,.74,4.08,1.54,1.61,4.75-1.86,2.41-.97,4.18,2.25,4.72,3.4,.57,6.8,1.21,10.17,1.93,.95,.2,1.87,.72,2.7,1.26,2.47,1.61,2.37,2.47,.07,4.24-1.07,.82-2.42,2.07-2.49,3.2-.12,1.96,1.86,2.54,3.51,2.89,4.68,1.02,7.92,4.07,10.79,7.6,1.47,1.82,.89,2.92-1.5,3.2-.49,.06-1.09-.26-1.47-.07-.95,.49-2.32,1.03-2.53,1.81-.22,.82,.51,2.16,1.22,2.89,1.72,1.79,3.85,3.19,5.46,5.06,1.27,1.48,2.14,3.35,2.95,5.16,1.49,3.33,1.17,3.72-3.61,3.35Z"/>
  <path d="M122.27,95.77c-4.05-1.47-8.12-2.92-12.14-4.46-15.34-5.88-30.68-11.79-46-17.72-2.86-1.11-4.82-2.8-6.05-6.02-7.32-19.08-14.95-38.03-22.53-57.01-2.13-5.33-2.47-5.36-6.74-1.85-.77,.63-1.51,1.31-2.31,1.91C9.26,23.79,.57,41.27,.06,62.86c-.39,8.84,1.23,17.25,4.62,25.36,10.26,24.59,29.09,38.29,55.01,42.05,13.54,1.96,26.85-.37,39.25-6.62,10.15-5.11,18.51-12.34,25.25-21.43,3.12-4.21,2.89-4.71-1.91-6.45Zm-6.82,8.08c-12.83,13.62-28.46,20.99-49.69,21.12-22.56-.64-41.12-11.95-53.22-33.58-2.96-5.29-4.54-11.21-5.7-17.37-2.28-12.1-.52-23.42,4.07-34.53,3.7-8.93,9.56-16.3,16.86-22.57,2.28-1.96,3.35-1.77,4.44,.91,3.49,8.62,6.87,17.27,10.28,25.92,2.62,6.64,5.2,13.28,7.82,19.92,1.15,2.92,2.53,5.77,3.47,8.76,.96,3.02,2.99,4.6,5.78,5.66,18.16,6.87,36.3,13.79,54.46,20.69,3.73,1.42,4.05,2.28,1.42,5.07Z"/>
</svg>