<?xml version="1.0" encoding="iso-8859-1"?>
<!-- Uploaded to: SVG Repo, www.svgrepo.com, Generator: SVG Repo Mixer Tools -->
<!DOCTYPE svg PUBLIC "-//W3C//DTD SVG 1.1//EN" "http://www.w3.org/Graphics/SVG/1.1/DTD/svg11.dtd">
<svg fill="#000000" version="1.1" id="Capa_1" xmlns="http://www.w3.org/2000/svg" xmlns:xlink="http://www.w3.org/1999/xlink" 
	 width="800px" height="800px" viewBox="0 0 45.936 45.936"
	 xml:space="preserve">
<g>
	<path d="M23.828,0.131c-0.56-0.175-1.157-0.175-1.717,0L2.909,6.127c-1.229,0.384-2.05,1.534-2.018,2.82
		c0.646,25.747,12.772,32.702,21.413,36.837c0.42,0.201,0.91,0.201,1.33,0c8.639-4.136,20.765-11.091,21.411-36.837
		c0.031-1.285-0.791-2.438-2.019-2.82L23.828,0.131z M29.556,16.938c0,0.509-0.372,0.9-0.882,0.9h-3.622l1.388,14.875
		c0.021,0.226-0.041,0.457-0.176,0.639l-2.449,3.32c-0.174,0.234-0.448,0.375-0.74,0.375c-0.035,0-0.175,0.002-0.21,0.002
		c-0.292,0-0.566-0.139-0.74-0.375l-2.448-3.317c-0.136-0.183-0.198-0.419-0.176-0.646l1.387-14.874h-3.623
		c-0.509,0-0.923-0.391-0.923-0.9v-1.151c0-0.509,0.414-0.886,0.923-0.886h3.574v-3.454c-0.888-0.655-1.463-1.707-1.463-2.894
		c0-1.985,1.608-3.595,3.595-3.595c1.983,0,3.594,1.609,3.594,3.595c0,1.205-0.594,2.271-1.505,2.923V14.9h3.615
		c0.51,0,0.882,0.377,0.882,0.886L29.556,16.938L29.556,16.938z"/>
</g>
</svg>