<?xml version="1.0" encoding="UTF-8"?>
<svg id="Layer_2" data-name="Layer 2" xmlns="http://www.w3.org/2000/svg" viewBox="0 0 39.78 34.45">
  <defs>
    <style>
      .cls-1 {
        fill: #fff;
      }

      .cls-2 {
        fill: #ce202f;
      }
    </style>
  </defs>
  <g id="Layer_1-2" data-name="Layer 1">
    <g>
      <polygon class="cls-2" points="39.78 17.22 29.83 34.45 9.94 34.45 0 17.22 9.94 0 29.83 0 39.78 17.22"/>
      <polygon class="cls-2" points="36.34 17.22 28.11 31.47 11.66 31.47 3.44 17.22 11.66 2.98 28.11 2.98 36.34 17.22"/>
      <path class="cls-1" d="M21.45,19.4h-1.67l.64-3.28h5.19l-1.39,7.18c-.13,.67-.5,1.24-1.11,1.72-.6,.47-1.25,.7-1.96,.7h-5.18c-.71,0-1.27-.23-1.69-.7-.43-.47-.57-1.05-.44-1.72l2.5-12.89c.13-.67,.5-1.24,1.11-1.72,.6-.47,1.25-.7,1.96-.7h5.18c.71,0,1.27,.23,1.69,.7,.43,.48,.57,1.05,.44,1.72l-.69,3.56h-3.52l.52-2.7h-3.33l-2.17,11.17h3.33l.59-3.04h0Z"/>
    </g>
  </g>
</svg>