<?xml version="1.0" encoding="UTF-8"?>
<svg id="Layer_2" data-name="Layer 2" xmlns="http://www.w3.org/2000/svg" viewBox="0 0 48.72 48.72">
  <defs>
    <style>
      .cls-1 {
        fill: #fff;
      }

      .cls-2 {
        fill: #233f94;
      }
    </style>
  </defs>
  <g id="Layer_1-2" data-name="Layer 1">
    <g>
      <rect class="cls-2" x="7.13" y="7.13" width="34.45" height="34.45" transform="translate(-10.09 24.36) rotate(-45)"/>
      <rect class="cls-1" x="10.51" y="10.5" width="27.7" height="27.7" transform="translate(-10.09 24.36) rotate(-45)"/>
    </g>
    <path d="M21.12,15.49h7.78c.71,0,1.27,.23,1.69,.7,.43,.48,.57,1.05,.44,1.72l-.89,4.57c-.26,1.35-.99,2.44-2.18,3.26-1.12,.78-2.41,1.16-3.87,1.16h-1.67l-1.23,6.32h-3.52l3.45-17.73h0Zm2.88,3.28l-.94,4.85h1.67c1.11,0,1.74-.38,1.89-1.14l.72-3.71h-3.34Z"/>
  </g>
</svg>