<?xml version="1.0" encoding="UTF-8"?>
<svg id="Layer_2" data-name="Layer 2" xmlns="http://www.w3.org/2000/svg" viewBox="0 0 36.56 36.56">
  <defs>
    <style>
      .cls-1 {
        fill: #fff;
      }

      .cls-2 {
        fill: #ce202f;
      }
    </style>
  </defs>
  <g id="Layer_1-2" data-name="Layer 1">
    <g>
      <circle class="cls-2" cx="18.28" cy="18.28" r="16.87"/>
      <path class="cls-2" d="M18.28,36.56C8.2,36.56,0,28.36,0,18.28S8.2,0,18.28,0s18.28,8.2,18.28,18.28-8.2,18.28-18.28,18.28Zm0-33.75C9.75,2.81,2.81,9.75,2.81,18.28s6.94,15.47,15.47,15.47,15.47-6.94,15.47-15.47S26.81,2.81,18.28,2.81Z"/>
    </g>
    <path class="cls-1" d="M20.89,12.97h-3.17l-.52,2.66c-.14,.72,.32,1.08,1.37,1.08,1.38,0,2.47,.37,3.25,1.11,.83,.78,1.12,1.82,.87,3.1l-.67,3.48c-.13,.64-.48,1.18-1.07,1.62-.57,.45-1.18,.67-1.85,.67h-4.92c-.67,0-1.21-.22-1.61-.67s-.53-.99-.41-1.62l.66-3.4h3.34l-.5,2.58h3.17l.51-2.66c.14-.73-.32-1.09-1.37-1.09-1.38,0-2.45-.37-3.23-1.1-.84-.78-1.13-1.82-.88-3.1l.68-3.48c.12-.64,.47-1.18,1.05-1.64,.57-.44,1.19-.66,1.87-.66h4.92c.67,0,1.21,.22,1.6,.66,.4,.46,.55,1,.43,1.64l-.66,3.38h-3.35l.5-2.57h0Z"/>
  </g>
</svg>