<?xml version="1.0" encoding="iso-8859-1"?>
<!-- Uploaded to: SVG Repo, www.svgrepo.com, Generator: SVG Repo Mixer Tools -->
<svg fill="#000000" height="800px" width="800px" version="1.1" id="Capa_1" xmlns="http://www.w3.org/2000/svg" xmlns:xlink="http://www.w3.org/1999/xlink" 
	 viewBox="0 0 60 60" xml:space="preserve">
<g>
	<path d="M53.498,15.712l-3.288-6.18c-0.5-0.94-1.339-1.631-2.363-1.943c-0.968-0.297-1.98-0.207-2.881,0.223
		c-2.27-1.97-4.857-3.445-7.706-4.393C36.975,1.489,35.325,0,33.318,0h-7c-2.042,0-3.712,1.543-3.952,3.522
		c-2.613,0.91-5.002,2.268-7.12,4.05c-0.017-0.009-0.03-0.022-0.047-0.031c-1.949-1.037-4.374-0.294-5.41,1.653l-3.288,6.18
		c-0.868,1.632-0.474,3.591,0.818,4.796c-0.23,1.286-0.354,2.571-0.354,3.83v9.676c0,2.565,0.838,4.875,2.717,7.49
		c1.1,1.53,2.576,1.998,3.763,2.374c1.407,0.445,2.16,0.737,2.569,2.012c0.289,0.901,0.397,1.93,0.331,3.142
		c-0.054,1.014-0.017,4.549,2.759,7.488c2.378,2.518,6.03,3.802,10.864,3.818c4.828-0.017,8.48-1.301,10.858-3.818
		c2.775-2.939,2.813-6.475,2.758-7.489c-0.065-1.211,0.043-2.239,0.332-3.141c0.409-1.274,1.162-1.566,2.569-2.012
		c1.187-0.376,2.663-0.844,3.764-2.375c1.878-2.614,2.716-4.924,2.716-7.489V24c0-1.129-0.118-2.294-0.309-3.467
		C53.97,19.331,54.373,17.355,53.498,15.712z M47.263,9.502c0.513,0.156,0.933,0.501,1.182,0.97l3.288,6.18
		c0.454,0.855,0.224,1.893-0.498,2.485l-0.189,0.121l-0.139,0.099c-0.47,0.248-1.009,0.3-1.522,0.144
		c-0.255-0.078-0.487-0.203-0.687-0.366c-0.032-0.026-0.058-0.059-0.088-0.087c-0.064-0.06-0.13-0.118-0.186-0.186
		c-0.083-0.101-0.158-0.211-0.222-0.331l-3.287-6.178c-0.006-0.011-0.009-0.024-0.014-0.035c-0.042-0.082-0.073-0.166-0.102-0.251
		c-0.031-0.1-0.056-0.207-0.075-0.324l-0.026-0.115c-0.006-0.019-0.003-0.039-0.008-0.059c-0.059-0.769,0.329-1.538,1.052-1.922
		C46.208,9.396,46.749,9.345,47.263,9.502z M34.847,43h-3.882v-9h6.839l2.602,3.644l-1.896,2.768C37.226,42.178,36.061,43,34.847,43
		z M25.318,43c-0.198,0-0.398-0.021-0.598-0.06c-1.4-0.274-2.797-1.435-3.578-2.506l-0.004-0.006l-1.716-2.535L22.776,34h6.188v9
		H25.318z M13.912,29.911c-0.62-0.851-0.947-1.857-0.947-2.911v-5.624c0-0.585,0.057-1.114,0.174-1.613
		c0.029-0.036,0.059-0.071,0.087-0.108c0.116-0.155,0.223-0.318,0.318-0.493c0.006-0.011,0.014-0.02,0.02-0.031l0.763-1.434
		c0.631-0.499,1.346-0.64,1.769-0.681l2.238,4.128C19.396,23.487,21.746,25,24.318,25h4.646v7h-6.646
		c-0.291,0-0.567,0.127-0.758,0.348l-3.324,3.857L13.912,29.911z M41.553,17l-1.145,3.317C39.668,21.947,38.033,23,36.243,23h-5.278
		v-6H41.553z M28.965,17v6h-4.646c-1.79,0-3.425-1.053-4.195-2.745L18.36,17H28.965z M41.609,35.887l-2.477-3.468
		C38.944,32.156,38.642,32,38.318,32h-7.354v-7h5.278c2.572,0,4.922-1.513,6.021-3.941L43.668,17h0.322
		c0.394,0.196,1.976,1.245,1.976,5.376V28c0,1.054-0.327,2.061-0.964,2.935L41.609,35.887z M26.318,2h7c1.103,0,2,0.897,2,2
		c0,0.54-0.218,1.03-0.567,1.39l-0.012,0.009c-0.286,0.29-0.64,0.482-1.025,0.56C33.586,5.986,33.454,6,33.318,6h-7
		c-0.2,0-0.392-0.037-0.577-0.095c-0.025-0.008-0.049-0.014-0.074-0.023c-0.577-0.208-1.05-0.689-1.271-1.374
		c-0.03-0.112-0.048-0.228-0.057-0.346l-0.017-0.206C24.347,2.874,25.231,2,26.318,2z M22.63,5.545
		c0.073,0.174,0.171,0.335,0.267,0.496c0.007,0.012,0.013,0.025,0.02,0.037c0.081,0.132,0.171,0.255,0.267,0.377
		c0.049,0.063,0.099,0.123,0.151,0.183c0.087,0.098,0.174,0.194,0.27,0.284c0.093,0.087,0.192,0.164,0.293,0.242
		c0.095,0.073,0.189,0.146,0.29,0.21c0.159,0.101,0.324,0.192,0.497,0.27c0.074,0.033,0.151,0.06,0.227,0.089
		c0.152,0.058,0.308,0.106,0.467,0.145c0.073,0.018,0.145,0.037,0.22,0.05C25.834,7.971,26.073,8,26.318,8h7
		c0.266,0,0.527-0.028,0.782-0.079c0.102-0.02,0.196-0.059,0.295-0.087c0.147-0.042,0.296-0.078,0.437-0.136
		c0.131-0.054,0.25-0.127,0.373-0.193c0.098-0.053,0.199-0.097,0.292-0.159c0.15-0.098,0.284-0.214,0.419-0.33
		c0.05-0.043,0.107-0.076,0.155-0.122c0.558-0.357,0.959-0.806,1.21-1.355c2.167,0.801,4.161,1.946,5.948,3.416
		c-0.512,0.822-0.695,1.815-0.535,2.781c0.006,0.074,0.025,0.147,0.035,0.221c0.012,0.054,0.012,0.11,0.026,0.164
		c0.005,0.029,0.015,0.053,0.02,0.081c0.032,0.158,0.066,0.315,0.118,0.47c0.068,0.217,0.15,0.424,0.253,0.619l0.91,1.71h-1.102
		h-0.001H16.682c-0.005,0-0.01,0.002-0.015,0.002H16.52c-0.032-0.003-0.333-0.019-0.781,0.039l1.111-2.088l0,0l0.001-0.001
		c0.137-0.258,0.238-0.527,0.315-0.802c0.01-0.041,0.021-0.089,0.035-0.155c0.026-0.113,0.044-0.223,0.061-0.331
		c0.019-0.126,0.033-0.252,0.039-0.379c0.001-0.024,0.003-0.04,0.004-0.066c0.003-0.127,0.003-0.255-0.005-0.384
		c0-0.003-0.001-0.007-0.001-0.01c-0.007-0.1-0.018-0.199-0.032-0.3c-0.003-0.019-0.003-0.036-0.006-0.055
		c-0.017-0.104-0.038-0.207-0.063-0.309c-0.005-0.022-0.013-0.042-0.018-0.064c-0.016-0.064-0.019-0.128-0.039-0.192
		c-0.012-0.039-0.033-0.072-0.046-0.11c-0.002-0.007-0.004-0.015-0.006-0.022c-0.022-0.064-0.049-0.128-0.085-0.209
		c-0.007-0.018-0.018-0.033-0.026-0.051c-0.077-0.182-0.163-0.358-0.265-0.525c-0.006-0.01-0.01-0.023-0.017-0.033
		C18.481,7.488,20.47,6.346,22.63,5.545z M8.267,16.313l3.288-6.18c0.359-0.676,1.054-1.061,1.771-1.061
		c0.315,0,0.637,0.075,0.935,0.233c0.102,0.054,0.195,0.12,0.284,0.189l0.097,0.086c0.223,0.198,0.395,0.446,0.514,0.736L15.2,10.42
		c0.023,0.068,0.039,0.137,0.056,0.206c0.013,0.053,0.024,0.104,0.032,0.15c0.009,0.062,0.015,0.123,0.019,0.182
		c0.004,0.065,0.004,0.131,0.001,0.218c-0.002,0.042-0.002,0.084-0.009,0.139c-0.009,0.077-0.027,0.154-0.04,0.213l-0.03,0.136
		c-0.036,0.117-0.08,0.233-0.141,0.347l-3.288,6.18c-0.045,0.084-0.101,0.158-0.156,0.233c-0.043,0.056-0.089,0.112-0.146,0.173
		c-0.003,0.004-0.004,0.009-0.007,0.013c-0.13,0.139-0.275,0.256-0.434,0.351c-0.029,0.017-0.054,0.04-0.084,0.055h-0.001
		c-0.568,0.3-1.273,0.321-1.891-0.012l-0.215-0.14C8.07,18.289,7.793,17.204,8.267,16.313z M40.649,53h-21.33
		c-0.012,0-0.022,0.006-0.034,0.007c-0.362-0.702-0.588-1.391-0.728-2.007h22.762c0.02,0,0.037-0.01,0.057-0.012
		C41.236,51.606,41.011,52.296,40.649,53z M20.764,55h18.401c-1.996,1.971-5.083,2.986-9.198,3
		C25.847,57.986,22.76,56.971,20.764,55z M50.965,33.676c0,2.12-0.722,4.07-2.34,6.322c-0.714,0.992-1.654,1.29-2.744,1.635
		c-1.393,0.441-3.126,0.99-3.869,3.308c-0.365,1.139-0.504,2.401-0.425,3.86c0.003,0.059,0.006,0.149,0.007,0.255
		C41.504,49.029,41.416,49,41.318,49H18.336c0.001-0.08,0.003-0.15,0.006-0.198c0.08-1.46-0.059-2.723-0.424-3.861
		c-0.743-2.317-2.477-2.866-3.869-3.308c-1.09-0.345-2.03-0.643-2.743-1.634c-1.619-2.253-2.341-4.203-2.341-6.323V24
		c0-0.934,0.071-1.884,0.212-2.84c0.032,0.007,0.065,0.007,0.097,0.013c0.153,0.029,0.306,0.05,0.46,0.061
		c0.053,0.004,0.106,0.008,0.159,0.01c0.044,0.001,0.089,0.008,0.133,0.008c0.105,0,0.209-0.013,0.314-0.021
		c0.054-0.004,0.107-0.004,0.16-0.011c0.162-0.019,0.322-0.05,0.48-0.089c-0.002,0.084-0.015,0.16-0.015,0.245V27
		c0,1.479,0.46,2.894,1.314,4.066l7.23,10.521C20.654,43.162,22.862,45,25.318,45h9.528c0.314,0,0.615-0.03,0.904-0.087
		c1.345-0.261,2.419-1.084,3.27-1.986c0.429-0.454,0.807-0.927,1.124-1.362l0.105-0.153l2.208-3.205
		c0.014-0.02,0.018-0.043,0.03-0.063l4.148-6.056c0.87-1.195,1.33-2.609,1.33-4.089v-5.624c0-0.489-0.026-0.936-0.063-1.364
		c0.04,0.024,0.081,0.045,0.121,0.067c0.044,0.024,0.09,0.045,0.134,0.067c0.184,0.093,0.374,0.172,0.569,0.236
		c0.025,0.008,0.047,0.022,0.073,0.03c0.016,0.005,0.032,0.007,0.048,0.011c0.093,0.027,0.188,0.047,0.283,0.067
		c0.077,0.017,0.153,0.035,0.231,0.047c0.086,0.013,0.173,0.02,0.26,0.028c0.089,0.008,0.178,0.016,0.266,0.018
		c0.029,0.001,0.057,0.006,0.086,0.006c0.059,0,0.118-0.008,0.177-0.011c0.076-0.003,0.152-0.006,0.227-0.014
		c0.078-0.008,0.156-0.021,0.233-0.034c0.062-0.01,0.125-0.014,0.187-0.027c0.111,0.845,0.167,1.681,0.167,2.495v9.679H50.965z"/>
</g>
</svg>