<?xml version="1.0" encoding="iso-8859-1"?>
<!-- Uploaded to: SVG Repo, www.svgrepo.com, Generator: SVG Repo Mixer Tools -->
<svg fill="#000000" version="1.1" id="Capa_1" xmlns="http://www.w3.org/2000/svg" xmlns:xlink="http://www.w3.org/1999/xlink" 
	 viewBox="0 0 512 512" xml:space="preserve">
<g>
	<g>
		<path d="M127.919,112.071c-21.981,0-39.862,17.882-39.862,39.862c0,21.98,17.881,39.862,39.862,39.862
			c21.98,0,39.862-17.881,39.862-39.862C167.781,129.954,149.899,112.071,127.919,112.071z M127.919,176.112
			c-13.332,0-24.179-10.847-24.179-24.179c0-13.332,10.847-24.179,24.179-24.179c13.332,0,24.179,10.847,24.179,24.179
			C152.098,165.266,141.251,176.112,127.919,176.112z"/>
	</g>
</g>
<g>
	<g>
		<path d="M127.919,320.205c-21.981,0-39.862,17.882-39.862,39.862c0,21.981,17.881,39.862,39.862,39.862
			c21.98,0,39.862-17.881,39.862-39.862C167.781,338.088,149.899,320.205,127.919,320.205z M127.919,384.246
			c-13.332,0-24.179-10.847-24.179-24.179c0-13.332,10.847-24.179,24.179-24.179c13.332,0,24.179,10.847,24.179,24.179
			C152.098,373.4,141.251,384.246,127.919,384.246z"/>
	</g>
</g>
<g>
	<g>
		<rect x="247.643" y="247.643" width="15.684" height="16.729"/>
	</g>
</g>
<g>
	<g>
		<rect x="119.038" y="352.2" width="17.775" height="15.684"/>
	</g>
</g>
<g>
	<g>
		<rect x="119.038" y="144.132" width="17.775" height="15.684"/>
	</g>
</g>
<g>
	<g>
		<path d="M384.083,112.071c-21.981,0-39.862,17.882-39.862,39.862c0,21.981,17.881,39.862,39.862,39.862
			c21.979,0,39.861-17.882,39.861-39.862C423.944,129.954,406.062,112.071,384.083,112.071z M384.083,176.112
			c-13.332,0-24.179-10.847-24.179-24.179s10.847-24.179,24.179-24.179s24.178,10.847,24.178,24.179
			C408.261,165.266,397.415,176.112,384.083,176.112z"/>
	</g>
</g>
<g>
	<g>
		<path d="M384.083,320.205c-21.981,0-39.862,17.882-39.862,39.862c0,21.981,17.881,39.862,39.862,39.862
			c21.979,0,39.861-17.881,39.861-39.862C423.944,338.088,406.062,320.205,384.083,320.205z M384.083,384.246
			c-13.332,0-24.179-10.847-24.179-24.179c0-13.332,10.847-24.179,24.179-24.179s24.178,10.847,24.178,24.179
			C408.261,373.4,397.415,384.246,384.083,384.246z"/>
	</g>
</g>
<g>
	<g>
		<rect x="375.202" y="352.2" width="17.775" height="15.684"/>
	</g>
</g>
<g>
	<g>
		<rect x="375.202" y="144.132" width="17.775" height="15.684"/>
	</g>
</g>
<g>
	<g>
		<path d="M263.323,216.825v-8.917H247.64v9.12c-17.979,3.854-31.501,19.861-31.501,38.972c0,19.113,13.522,35.12,31.501,38.973
			v9.127h15.684v-8.923c18.494-3.449,32.54-19.698,32.54-39.176C295.863,236.522,281.816,220.273,263.323,216.825z M256.001,280.18
			c-13.332,0-24.179-10.847-24.179-24.179c0-13.332,10.847-24.179,24.179-24.179s24.179,10.847,24.179,24.179
			C280.18,269.333,269.333,280.18,256.001,280.18z"/>
	</g>
</g>
<g>
	<g>
		<rect x="247.643" y="312.468" width="15.684" height="15.684"/>
	</g>
</g>
<g>
	<g>
		<rect x="247.643" y="336.516" width="15.684" height="15.684"/>
	</g>
</g>
<g>
	<g>
		<rect x="247.643" y="359.519" width="15.684" height="15.684"/>
	</g>
</g>
<g>
	<g>
		<rect x="247.643" y="159.815" width="15.684" height="15.684"/>
	</g>
</g>
<g>
	<g>
		<rect x="247.643" y="183.863" width="15.684" height="15.683"/>
	</g>
</g>
<g>
	<g>
		<path d="M457.777,88.057H54.223C24.325,88.057,0,112.381,0,142.28v227.44c0,29.899,24.325,54.223,54.223,54.223h403.554
			c29.899,0,54.223-24.325,54.223-54.223V142.28C512,112.381,487.676,88.057,457.777,88.057z M278.947,103.74
			c-3.197,9.681-12.272,16.471-22.946,16.471s-19.749-6.789-22.945-16.471H278.947z M71.984,224.924
			c13.718,3.689,23.819,16.221,23.819,31.077c0,14.856-10.101,27.389-23.819,31.077V224.924z M56.3,408.261h-2.077
			c-21.251,0-38.54-17.288-38.54-38.541V142.28c0-21.251,17.288-38.54,38.54-38.54H56.3V408.261z M183.86,408.261H71.984V303.11
			c22.25-3.996,39.503-23.592,39.503-47.109s-17.254-43.113-39.503-47.109V103.74H183.86V408.261z M312.465,408.262h-49.142v-24.697
			H247.64v24.696h-48.096V103.74h17.351c3.07,15.577,15.25,27.939,30.745,31.263v17.489h15.684v-17.284
			c15.988-2.985,28.646-15.545,31.784-31.467h17.357V408.262z M440.024,287.078c-13.718-3.689-23.819-16.221-23.819-31.077
			c0-14.856,10.101-27.389,23.819-31.077V287.078z M440.024,208.892c-22.25,3.996-39.503,23.592-39.503,47.109
			s17.253,43.113,39.503,47.109v105.151H328.148V103.74h111.876V208.892z M496.316,369.72c0,21.251-17.288,38.54-38.54,38.54h-2.069
			V103.74h2.069c21.251,0,38.54,17.288,38.54,38.54V369.72z"/>
	</g>
</g>
</svg>