<?xml version="1.0" encoding="iso-8859-1"?>
<!-- Uploaded to: SVG Repo, www.svgrepo.com, Generator: SVG Repo Mixer Tools -->
<svg version="1.1" id="Layer_1" xmlns="http://www.w3.org/2000/svg" xmlns:xlink="http://www.w3.org/1999/xlink" 
	 viewBox="0 0 512 512" xml:space="preserve">
<rect style="fill:#BDCCD4;" width="512" height="512"/>
<path style="fill:#FFFFFF;" d="M460.037,416H51.963c-24.279,0-43.962-19.683-43.962-43.962V139.962
	C8.001,115.683,27.684,96,51.963,96h408.074c24.28,0,43.962,19.683,43.962,43.962v232.075C503.999,396.317,484.317,416,460.037,416z
	"/>
<g>
	<path style="fill:#E6E6E6;" d="M39.709,368.822c0,26.039,21.4,47.051,47.438,47.051h-32c-26.039,0-46.785-20.982-46.785-47.02
		V143.148c0-26.039,20.746-47.014,46.785-47.014h32c-26.039,0-47.438,21.042-47.438,47.081V368.822z"/>
	<path style="fill:#E6E6E6;" d="M471.252,368.822c0,26.039-21.214,47.051-47.252,47.051h32c26.039,0,47.644-20.982,47.644-47.02
		V143.148c0-26.039-21.605-47.014-47.644-47.014h-32c26.039,0,47.252,21.042,47.252,47.081V368.822z"/>
</g>
<g>
	<path style="fill:#ED1C24;" d="M63.742,303.836v-15.673c17.763,0,32.163-14.429,32.163-32.163c0-17.735-14.4-32.163-32.163-32.163
		v-15.673c26.122,0,47.836,21.459,47.836,47.836S89.864,303.836,63.742,303.836z"/>
	<path style="fill:#ED1C24;" d="M448.264,303.836c-26.122,0-47.836-21.459-47.836-47.836c0-26.377,21.714-47.836,47.836-47.836
		v15.673c-17.763,0-32.163,14.429-32.163,32.163c0,17.735,14.4,32.163,32.163,32.163V303.836z"/>
	<path style="fill:#ED1C24;" d="M128,191.837c-21.966,0-39.837-17.871-39.837-39.837s17.871-39.837,39.837-39.837
		s39.837,17.871,39.837,39.837S149.967,191.837,128,191.837z M128,127.837c-13.323,0-24.163,10.84-24.163,24.163
		c0,13.324,10.84,24.163,24.163,24.163c13.324,0,24.163-10.84,24.163-24.163C152.163,138.677,141.324,127.837,128,127.837z"/>
	<path style="fill:#ED1C24;" d="M128,399.836c-21.966,0-39.837-17.871-39.837-39.837s17.871-39.837,39.837-39.837
		s39.837,17.871,39.837,39.837C167.837,381.967,149.967,399.836,128,399.836z M128,335.836c-13.323,0-24.163,10.84-24.163,24.163
		c0,13.324,10.84,24.163,24.163,24.163c13.324,0,24.163-10.84,24.163-24.163C152.163,346.676,141.324,335.836,128,335.836z"/>
</g>
<g>
	<rect x="247.641" y="247.641" style="fill:#0071BC;" width="15.673" height="16.718"/>
	<rect x="119.118" y="352.131" style="fill:#0071BC;" width="17.763" height="15.673"/>
	<rect x="119.118" y="144.196" style="fill:#0071BC;" width="17.763" height="15.673"/>
</g>
<g>
	<path style="fill:#ED1C24;" d="M384,191.837c-21.967,0-39.837-17.871-39.837-39.837s17.87-39.837,39.837-39.837
		c21.965,0,39.836,17.871,39.836,39.837S405.966,191.837,384,191.837z M384,127.837c-13.323,0-24.163,10.84-24.163,24.163
		c0,13.324,10.84,24.163,24.163,24.163c13.324,0,24.162-10.84,24.162-24.163C408.162,138.677,397.323,127.837,384,127.837z"/>
	<path style="fill:#ED1C24;" d="M384,399.836c-21.967,0-39.837-17.871-39.837-39.837s17.87-39.837,39.837-39.837
		c21.965,0,39.836,17.871,39.836,39.837C423.836,381.967,405.966,399.836,384,399.836z M384,335.836
		c-13.323,0-24.163,10.84-24.163,24.163c0,13.324,10.84,24.163,24.163,24.163c13.324,0,24.162-10.84,24.162-24.163
		C408.162,346.676,397.323,335.836,384,335.836z"/>
</g>
<g>
	<rect x="375.118" y="352.131" style="fill:#0071BC;" width="17.763" height="15.673"/>
	<rect x="375.118" y="144.196" style="fill:#0071BC;" width="17.763" height="15.673"/>
</g>
<g>
	<rect x="247.641" y="312.424" style="fill:#ED1C24;" width="15.673" height="15.673"/>
	<rect x="247.641" y="336.457" style="fill:#ED1C24;" width="15.673" height="15.673"/>
	<rect x="247.641" y="359.445" style="fill:#ED1C24;" width="15.673" height="15.673"/>
	<rect x="247.641" y="159.869" style="fill:#ED1C24;" width="15.673" height="15.673"/>
	<rect x="247.641" y="183.902" style="fill:#ED1C24;" width="15.673" height="15.673"/>
	<path style="fill:#ED1C24;" d="M295.837,256c0-19.466-14.038-35.705-32.519-39.151v-8.911h-15.673v9.115
		c-17.967,3.852-31.481,19.848-31.481,38.948s13.514,35.097,31.481,38.948v9.121h15.673v-8.917
		C281.8,291.705,295.837,275.466,295.837,256z M256,280.163c-13.324,0-24.163-10.84-24.163-24.163s10.84-24.163,24.163-24.163
		s24.163,10.84,24.163,24.163S269.323,280.163,256,280.163z"/>
</g>
<g>
	<rect x="56.424" y="96.131" style="fill:#0071BC;" width="15.673" height="319.739"/>
	<rect x="439.902" y="96.131" style="fill:#0071BC;" width="15.673" height="319.739"/>
	<rect x="183.902" y="96.131" style="fill:#0071BC;" width="15.673" height="319.739"/>
	<rect x="312.424" y="96.131" style="fill:#0071BC;" width="15.673" height="319.739"/>
</g>
<path style="fill:#ED1C24;" d="M457.648,88.163H54.352c-29.88,0-54.188,24.31-54.188,54.188v227.295
	c0,29.88,24.31,54.188,54.188,54.188h403.295c29.88,0,54.188-24.31,54.188-54.188V142.353
	C511.836,112.473,487.526,88.163,457.648,88.163z M256,120.297c-10.667,0-19.736-6.785-22.93-16.46h45.862
	C275.736,113.512,266.667,120.297,256,120.297z M496.162,369.647c0,21.238-17.277,38.515-38.515,38.515h-194.33v-24.682h-15.673
	v24.682H54.352c-21.238,0-38.515-17.277-38.515-38.515V142.353c0-21.238,17.277-38.515,38.515-38.515h162.566
	c3.068,15.567,15.24,27.921,30.725,31.243v17.478h15.673v-17.273c15.978-2.983,28.628-15.534,31.764-31.447h162.566
	c21.238,0,38.515,17.277,38.515,38.515L496.162,369.647L496.162,369.647z"/>
</svg>