<?xml version="1.0" encoding="iso-8859-1"?>
<!-- Uploaded to: SVG Repo, www.svgrepo.com, Generator: SVG Repo Mixer Tools -->
<svg version="1.1" id="Capa_1" xmlns="http://www.w3.org/2000/svg" xmlns:xlink="http://www.w3.org/1999/xlink" 
	 viewBox="0 0 58.5 58.5" xml:space="preserve">
<path style="fill:#CC4B4C;" d="M16.887,52h24.656c0.284-0.674,0.48-1.349,0.609-2H16.279C16.407,50.651,16.603,51.326,16.887,52z"/>
<path style="fill:#CC4B4C;" d="M18.718,54.839c2.279,2.413,5.811,3.646,10.495,3.661h0.004c4.685-0.016,8.216-1.248,10.495-3.661
	c0.255-0.27,0.487-0.551,0.7-0.839H18.018C18.231,54.288,18.463,54.569,18.718,54.839z"/>
<path style="fill:#CC4B4C;" d="M45.584,42.063c1.174-0.372,2.505-0.794,3.509-2.189c1.813-2.524,2.622-4.744,2.622-7.198V23
	c0-1.298-0.132-2.642-0.391-3.993l-0.139-0.725l-0.622,0.397l-0.173,0.118c-0.357,0.19-0.761,0.291-1.165,0.291
	c-0.933,0-1.781-0.507-2.216-1.323l-3.288-6.18c-0.116-0.22-0.196-0.47-0.257-0.821c-0.263-0.918,0.028-1.921,0.742-2.557
	l0.416-0.371l-0.414-0.373c-2.391-2.154-5.156-3.734-8.223-4.696L35.391,2.58l-0.052,0.623c-0.058,0.699-0.317,1.124-0.895,1.469
	l-0.1,0.079C33.869,5.233,33.238,5.5,32.569,5.5h-7c-1.079,0-2.03-0.7-2.377-1.772l-0.028-0.092c-0.037-0.14-0.06-0.285-0.072-0.433
	L23.04,2.58l-0.597,0.188c-3.067,0.962-5.833,2.543-8.222,4.697l-0.414,0.373l0.416,0.371c0.279,0.249,0.496,0.56,0.646,0.928
	l0.052,0.122c0.029,0.083,0.049,0.167,0.069,0.253c0.016,0.064,0.03,0.129,0.04,0.191c0.012,0.075,0.019,0.151,0.023,0.226
	c0.005,0.081,0.005,0.162,0.001,0.267c-0.002,0.057-0.003,0.112-0.011,0.176c-0.011,0.097-0.033,0.192-0.053,0.279l-0.036,0.161
	c-0.046,0.147-0.102,0.293-0.178,0.436l-3.288,6.181c-0.623,1.17-2.032,1.774-3.454,0.982L7.32,17.94l-0.148,0.716
	C6.869,20.113,6.715,21.574,6.715,23v9.676c0,2.454,0.809,4.674,2.622,7.198c1.004,1.396,2.335,1.817,3.509,2.189
	c1.334,0.422,2.387,0.756,2.894,2.335c0.309,0.962,0.425,2.048,0.355,3.321c-0.005,0.089,0,0.188-0.001,0.28h26.243
	c-0.002-0.092,0.003-0.192-0.001-0.28c-0.069-1.273,0.047-2.359,0.355-3.321C43.198,42.819,44.25,42.485,45.584,42.063z"/>
<path style="fill:#38454F;" d="M16.279,50h25.873c0.141-0.715,0.197-1.392,0.185-2H16.094C16.082,48.608,16.138,49.285,16.279,50z"
	/>
<path style="fill:#38454F;" d="M18.018,54h22.394c0.475-0.641,0.844-1.318,1.131-2H16.887C17.174,52.682,17.543,53.359,18.018,54z"
	/>
<path style="fill:#546A79;stroke:#ECF0F1;stroke-width:2;stroke-linecap:round;stroke-linejoin:round;stroke-miterlimit:10;" d="
	M43.426,15H29.569H15.711c0,0-1.629-0.097-2.927,1.058l-0.853,1.604c-0.123,0.232-0.281,0.431-0.451,0.616
	c-0.162,0.591-0.265,1.276-0.265,2.099V26c0,1.258,0.398,2.483,1.138,3.5L19.569,40c1.12,1.54,3.096,3,5,3h5h4.528
	c1.904,0,3.352-1.46,4.472-3l6.508-9.5c0.74-1.017,1.138-2.242,1.138-3.5v-5.624C46.215,15.707,43.426,15,43.426,15z"/>
<path style="fill:#ECF0F1;" d="M29.215,44c-0.553,0-1-0.447-1-1V15c0-0.553,0.447-1,1-1s1,0.447,1,1v28
	C30.215,43.553,29.768,44,29.215,44z"/>
<path style="fill:#ECF0F1;" d="M34.097,44h-9.528c-2.456,0-4.664-1.838-5.809-3.412l-2.173-3.208
	c-0.253-0.374-0.225-0.871,0.07-1.213l4.153-4.819C21.001,31.127,21.278,31,21.569,31h16c0.323,0,0.626,0.156,0.813,0.419
	l3.314,4.641c0.245,0.343,0.249,0.802,0.01,1.148l-2.314,3.359C38.312,42.053,36.606,44,34.097,44z M18.672,36.893l1.725,2.547
	C21.285,40.658,22.983,42,24.569,42h9.528c1.215,0,2.379-0.822,3.663-2.588l1.901-2.761L37.054,33H22.027L18.672,36.893z"/>
<path style="fill:#ECF0F1;" d="M35.494,24H23.569c-2.572,0-4.922-1.513-5.985-3.854l-2.531-4.669
	c-0.167-0.311-0.159-0.686,0.021-0.988C15.253,14.186,15.579,14,15.932,14h26.273c0.323,0,0.627,0.156,0.814,0.42
	s0.236,0.602,0.131,0.907l-1.637,4.731C40.415,22.487,38.066,24,35.494,24z M17.611,16l1.763,3.255
	C20.144,20.947,21.779,22,23.569,22h11.925c1.79,0,3.425-1.053,4.165-2.683L40.803,16H17.611z"/>
<path style="fill:#546A79;" d="M32.569,6h-7c-1.65,0-3-1.35-3-3v0c0-1.65,1.35-3,3-3h7c1.65,0,3,1.35,3,3v0
	C35.569,4.65,34.219,6,32.569,6z"/>
<path style="fill:#546A79;" d="M15.219,11.482l-3.288,6.18c-0.775,1.457-2.601,2.014-4.058,1.239l0,0
	c-1.457-0.775-2.014-2.601-1.239-4.058l3.288-6.18c0.775-1.457,2.601-2.014,4.058-1.239l0,0
	C15.437,8.199,15.994,10.025,15.219,11.482z"/>
<path style="fill:#546A79;" d="M43.281,11.82L46.569,18c0.775,1.457,2.601,2.014,4.058,1.239l0,0
	c1.457-0.775,2.014-2.601,1.239-4.058l-3.288-6.18c-0.775-1.457-2.601-2.014-4.058-1.239l0,0
	C43.063,8.538,42.506,10.364,43.281,11.82z"/>
</svg>